<?xml version="1.0" standalone="no"?>
<!DOCTYPE svg PUBLIC "-//W3C//DTD SVG 20010904//EN"
 "http://www.w3.org/TR/2001/REC-SVG-20010904/DTD/svg10.dtd">
<svg version="1.0" xmlns="http://www.w3.org/2000/svg"
 width="865.000000pt" height="865.000000pt" viewBox="0 0 865.000000 865.000000"
 preserveAspectRatio="xMidYMid meet">
<metadata>
Created by potrace 1.11, written by Peter Selinger 2001-2013
</metadata>
<g transform="translate(0.000000,865.000000) scale(0.100000,-0.100000)"
fill="#000000" stroke="none">
<path d="M5238 8566 c-65 -45 -204 -139 -309 -211 -105 -71 -193 -134 -195
-140 -2 -5 -3 -538 -2 -1182 l3 -1173 118 81 c65 45 121 78 124 75 3 -3 6
-1358 6 -3011 -1 -2238 2 -3003 11 -2998 6 3 79 53 163 110 l152 104 0 885 0
886 -24 -16 c-14 -9 -36 -23 -50 -32 l-25 -16 0 1603 0 1604 78 51 77 51 0
1701 c0 935 -2 1702 -5 1704 -3 3 -58 -32 -122 -76z"/>
<path d="M4425 7131 c-88 -60 -245 -167 -350 -239 l-190 -129 0 -2484 1 -2484
-43 -29 c-24 -15 -44 -31 -44 -35 -1 -3 -2 -394 -3 -868 l-2 -861 26 15 c14 8
122 81 240 162 l215 147 0 1419 -1 1420 46 30 46 30 0 628 c-1 345 -5 627 -9
627 -5 0 -21 -8 -35 -18 -15 -10 -32 -21 -37 -24 -14 -8 -14 1038 0 1050 6 5
69 49 140 97 72 49 139 96 150 104 20 16 20 25 20 784 0 422 -2 767 -5 767 -3
0 -77 -49 -165 -109z"/>
<path d="M3660 5797 c-58 -40 -189 -129 -291 -199 l-187 -127 1 -925 c0 -847
1 -924 16 -919 9 3 23 11 31 18 8 7 20 15 26 18 9 5 12 -454 12 -1823 0 -1007
1 -1832 3 -1834 2 -2 78 46 169 108 l165 113 5 1072 5 1073 60 42 60 42 1 909
c0 501 -2 916 -4 922 -3 9 -15 4 -38 -13 l-34 -26 0 250 0 251 63 43 62 44 0
517 c0 346 -3 517 -10 516 -5 0 -57 -32 -115 -72z"/>
<path d="M4611 5560 c-95 -65 -178 -123 -184 -129 -11 -11 -15 -746 -4 -757 3
-4 18 3 34 13 15 11 33 23 39 26 9 5 12 -603 12 -2331 0 -1285 1 -2347 1
-2360 1 -20 16 -13 144 75 l142 97 0 452 0 453 -42 -25 -43 -25 0 280 0 280
33 23 32 23 -2 445 c-1 245 -2 449 -2 453 -1 5 -14 -1 -31 -13 l-30 -21 0 348
0 348 43 27 42 27 0 1206 c0 663 -2 1205 -5 1205 -3 -1 -83 -54 -179 -120z"/>
<path d="M5790 4897 c-58 -40 -176 -121 -264 -181 -87 -59 -176 -120 -197
-134 l-38 -27 0 -318 c1 -238 4 -315 12 -310 7 3 30 18 52 33 22 15 45 29 51
33 8 4 11 -221 12 -806 0 -447 1 -816 1 -820 1 -4 21 6 45 23 25 16 48 30 53
30 4 0 8 -544 8 -1209 0 -806 3 -1207 10 -1204 31 18 205 138 206 142 1 3 2
835 3 1849 1 1347 4 1845 13 1850 6 4 41 27 77 52 l66 45 0 512 c0 282 -1 513
-2 513 -2 -1 -50 -33 -108 -73z"/>
<path d="M2960 3319 c-63 -44 -139 -95 -167 -115 l-53 -36 0 -1585 c0 -1265 3
-1583 13 -1577 43 25 323 220 329 228 4 6 7 106 6 223 l0 212 -24 -16 c-23
-15 -24 -15 -25 13 0 16 -1 181 -1 367 l0 337 25 20 25 20 0 310 c1 308 1 310
-20 299 -11 -6 -22 -8 -26 -5 -3 4 -5 139 -5 301 l0 295 26 20 25 20 0 375 c1
206 -2 375 -6 374 -4 -1 -59 -37 -122 -80z"/>
</g>
</svg>
