<?xml version="1.0" standalone="no"?>
<!DOCTYPE svg PUBLIC "-//W3C//DTD SVG 20010904//EN"
 "http://www.w3.org/TR/2001/REC-SVG-20010904/DTD/svg10.dtd">
<svg version="1.0" xmlns="http://www.w3.org/2000/svg"
 width="1108.000000pt" height="1108.000000pt" viewBox="0 0 1108.000000 1108.000000"
 preserveAspectRatio="xMidYMid meet">
<metadata>
Created by potrace 1.11, written by Peter Selinger 2001-2013
</metadata>
<g transform="translate(0.000000,1108.000000) scale(0.100000,-0.100000)"
fill="#000000" stroke="none">
<path d="M6529 10316 c-8 -7 -70 -51 -139 -97 -69 -46 -127 -86 -130 -89 -3
-3 -72 -50 -153 -104 -81 -55 -150 -103 -153 -108 -6 -10 -7 -2248 -1 -2254 2
-2 50 28 108 67 57 39 110 73 116 76 10 4 13 -580 15 -2886 l3 -2890 152 102
152 102 2 185 c1 102 1 189 0 193 -2 14 -3 47 -2 277 0 124 0 232 0 240 0 78
0 470 0 485 1 144 0 310 -4 313 -2 2 -20 -8 -41 -22 -21 -14 -40 -24 -42 -21
-3 3 -5 2806 -2 3037 0 35 5 40 73 86 l72 49 0 1631 c0 897 -3 1633 -6 1636
-3 3 -12 0 -20 -8z"/>
<path d="M5470 8748 l-334 -228 -1 -2386 0 -2386 -42 -30 c-42 -29 -43 -30
-43 -89 -1 -32 -1 -399 -1 -814 0 -415 0 -762 1 -770 0 -10 33 7 102 52 57 38
107 72 113 76 5 5 63 44 127 88 l117 80 0 1342 c0 738 1 1352 1 1364 0 14 15
31 43 50 l42 28 0 603 c0 331 -1 602 -3 602 -7 0 -58 -35 -64 -44 -4 -6 -9 -8
-13 -5 -5 5 -7 343 -5 819 l1 195 112 75 c62 41 114 78 115 83 2 4 10 7 18 7
8 0 14 4 14 8 0 5 10 14 23 21 l23 12 -1 734 c0 403 -2 735 -5 737 -3 3 -156
-98 -340 -224z"/>
<path d="M5004 7651 c-16 -15 -130 -93 -486 -334 l-58 -39 0 -889 0 -890 37
26 c21 14 40 25 43 25 3 0 5 -792 5 -1759 l0 -1760 35 22 c34 21 224 150 268
182 l22 16 0 1027 0 1027 48 30 c26 16 53 35 60 41 9 10 12 202 12 894 l0 882
-35 -22 -35 -22 -1 24 c-3 86 -4 435 0 446 2 7 29 30 61 52 l57 38 -1 495 c-1
273 -3 498 -7 501 -3 3 -14 -3 -25 -13z"/>
<path d="M5880 7396 c-69 -47 -129 -88 -135 -93 -5 -4 -29 -20 -52 -36 -29
-18 -43 -35 -44 -50 -3 -95 -1 -698 3 -702 2 -3 19 6 38 20 18 13 36 23 39 21
3 -2 6 -1021 5 -2264 l0 -2261 20 11 c25 13 79 50 86 59 3 3 10 8 15 10 6 2
43 27 83 54 l72 50 0 426 c0 234 -3 428 -6 432 -4 3 -21 -5 -39 -18 -17 -14
-34 -25 -36 -25 -3 0 -3 413 0 522 1 19 10 32 30 44 l29 17 0 433 0 433 -29
-15 c-28 -14 -29 -14 -30 8 0 13 -1 162 -1 333 l0 309 23 16 c13 8 31 22 41
30 18 14 18 63 16 1168 l-3 1152 -125 -84z"/>
<path d="M6980 6737 c-41 -29 -167 -115 -280 -191 -113 -77 -207 -141 -209
-143 -6 -4 -8 -559 -3 -590 4 -21 6 -20 52 13 26 19 52 34 57 34 6 0 9 -285 9
-776 -1 -427 2 -778 5 -780 4 -2 26 10 50 26 l44 29 5 -1165 5 -1165 100 68
c55 37 101 67 102 68 3 1 4 25 3 65 0 8 0 80 0 160 0 80 0 154 0 165 0 26 -1
1587 0 1600 0 11 0 290 0 320 0 11 0 295 1 630 l1 610 52 35 c28 19 57 41 64
47 7 7 18 13 23 13 5 0 9 195 9 490 0 270 -3 490 -7 490 -5 -1 -42 -24 -83
-53z"/>
<path d="M4343 5277 c-13 -6 -23 -14 -23 -19 0 -4 -4 -8 -9 -8 -12 0 -253
-167 -266 -184 -7 -9 -9 -527 -8 -1517 1 -827 2 -1508 2 -1512 1 -4 75 42 166
103 l165 111 0 205 c0 175 -2 204 -15 204 -8 0 -15 -4 -15 -10 0 -5 -4 -10
-10 -10 -5 0 -8 77 -7 195 1 107 -2 195 -6 195 -5 0 -5 5 -2 10 4 6 7 78 7
159 0 146 1 149 24 162 l24 12 0 299 c0 275 -4 322 -25 288 -18 -29 -22 7 -22
183 0 106 -3 199 -7 205 -4 7 -4 12 1 12 4 0 8 25 8 55 0 30 -3 55 -6 55 -15
0 7 67 28 85 l23 21 -2 355 -3 356 -22 -10z"/>
<path d="M3030 1660 l-75 -5 0 -252 c0 -164 3 -254 10 -254 45 -7 361 -3 366
4 4 5 4 17 2 27 -4 15 -20 17 -131 18 -70 0 -141 1 -158 1 l-30 1 0 89 1 89
110 0 c183 1 171 -1 171 27 0 28 11 27 -172 27 l-111 0 2 81 c2 45 3 85 4 88
0 4 63 7 139 7 184 0 172 -2 172 27 0 23 -3 25 -52 26 -29 0 -80 1 -113 2 -33
1 -94 0 -135 -3z"/>
<path d="M3958 1662 c-58 -3 -58 -3 -59 -35 -4 -150 0 -469 6 -475 3 -4 17 -7
29 -7 22 -1 23 2 23 100 1 55 1 106 2 113 1 9 36 12 139 12 l139 0 0 28 0 27
-139 -1 c-94 -1 -138 2 -139 10 -4 46 -3 159 1 165 3 5 61 8 130 9 194 0 180
-2 180 30 l0 27 -127 0 c-71 0 -154 -1 -185 -3z"/>
<path d="M4875 1660 l-40 -5 0 -255 0 -255 25 1 c14 1 27 2 30 3 3 0 5 51 4
111 l-1 110 142 0 142 0 -4 28 -5 27 -136 0 -137 0 -1 90 -1 91 141 -1 c170 0
174 0 174 31 0 18 -6 24 -22 24 -11 0 -77 2 -146 3 -69 1 -143 0 -165 -3z"/>
<path d="M5798 1662 l-28 -3 0 -258 0 -257 183 2 c100 0 186 2 190 3 5 0 7 11
5 24 -3 21 -6 22 -138 24 -74 1 -145 2 -157 2 -22 1 -23 5 -23 90 l0 89 128 0
c70 0 133 1 140 1 6 1 12 12 12 26 0 29 8 27 -167 26 l-113 -1 0 89 0 88 151
0 c119 0 153 3 160 14 12 19 11 29 -3 34 -15 6 -301 11 -340 7z"/>
<path d="M6887 1655 c-122 -42 -202 -194 -166 -315 34 -113 87 -168 186 -194
66 -18 128 -11 192 22 66 33 82 55 59 78 -15 15 -19 15 -50 -9 -65 -50 -147
-59 -217 -25 -54 25 -65 37 -93 98 -23 49 -29 150 -10 173 7 8 9 16 6 19 -11
12 84 95 117 103 74 17 179 -4 202 -42 12 -20 35 -16 48 9 10 18 8 24 -12 39
-68 52 -183 72 -262 44z"/>
<path d="M7795 1660 c-45 -5 -50 -7 -50 -29 0 -24 2 -25 85 -25 l85 -1 0 -228
c0 -144 4 -227 10 -228 6 0 19 -2 31 -3 20 -2 21 0 20 222 -1 138 3 227 9 231
6 4 31 8 58 9 l47 1 0 -40 c0 -37 2 -39 30 -39 l30 0 0 65 c0 63 -1 65 -25 65
-203 4 -288 4 -330 0z"/>
<path d="M2964 1058 c-3 -4 1163 -8 2590 -8 1428 0 2596 4 2596 8 0 11 -5180
11 -5186 0z"/>
<path d="M3014 926 c-52 -23 -72 -102 -41 -159 21 -37 65 -59 104 -52 10 2 23
4 28 5 20 2 47 29 40 40 -5 8 -12 7 -23 -3 -53 -47 -139 -5 -139 67 0 69 75
115 128 78 15 -10 24 -11 32 -3 8 8 1 15 -26 26 -39 16 -69 16 -103 1z"/>
<path d="M3523 924 c-49 -25 -69 -87 -47 -143 44 -107 189 -83 210 35 5 30
-19 85 -45 101 -34 21 -84 24 -118 7z m100 -27 c31 -20 45 -77 29 -112 -6 -13
-25 -31 -41 -40 -92 -47 -169 100 -81 154 36 21 59 21 93 -2z"/>
<path d="M4005 931 c-4 -7 -7 -50 -7 -94 0 -115 1 -117 15 -117 9 0 12 21 11
80 -1 45 2 80 6 78 4 -2 36 -39 71 -83 35 -43 68 -79 73 -80 10 0 15 185 5
212 -11 33 -22 -9 -21 -86 l1 -76 -27 31 c-29 33 -90 108 -108 132 -8 12 -13
12 -19 3z"/>
<path d="M4523 914 c-18 -18 -22 -30 -17 -47 7 -23 20 -41 32 -43 77 -12 101
-32 84 -69 -10 -21 -17 -24 -43 -20 -18 3 -40 10 -50 15 -22 13 -29 13 -29 0
0 -13 38 -32 76 -37 23 -3 39 2 59 20 24 21 27 27 18 53 -7 22 -21 33 -64 49
-57 22 -74 49 -45 70 17 13 63 9 83 -7 17 -14 25 8 8 22 -8 7 -31 14 -51 16
-28 2 -41 -2 -61 -22z"/>
<path d="M5465 832 c2 -59 3 -110 4 -113 0 -3 29 -5 64 -3 80 3 77 2 77 14 0
6 -27 10 -60 10 l-60 0 -1 73 c-1 39 0 82 0 93 1 12 -4 24 -12 27 -12 5 -14
-12 -12 -101z"/>
<path d="M5930 932 c-24 -8 -7 -22 29 -22 l38 0 -1 -95 c-1 -68 2 -96 11 -99
14 -6 16 10 13 127 l-1 67 35 0 c22 0 36 5 36 13 0 8 -22 12 -75 12 -41 0 -80
-1 -85 -3z"/>
<path d="M6500 928 c0 -5 -17 -46 -39 -92 -51 -109 -57 -128 -38 -120 9 3 18
16 21 30 4 13 14 24 24 25 87 5 112 3 112 -7 0 -7 9 -22 21 -35 l20 -24 -6 30
c-11 51 -87 202 -101 202 -8 0 -14 -4 -14 -9z m31 -55 c6 -16 10 -30 11 -33 0
-3 4 -11 10 -18 6 -7 8 -15 4 -19 -7 -7 -86 -12 -86 -5 0 8 43 102 46 102 3 0
9 -12 15 -27z"/>
<path d="M7514 933 c-25 -5 -66 -46 -71 -71 -8 -36 -7 -48 4 -79 22 -62 114
-91 162 -52 31 26 22 33 -20 16 -19 -7 -38 -13 -44 -12 -67 11 -98 72 -70 138
16 39 88 54 122 25 10 -8 17 -8 25 0 9 9 2 15 -25 27 -37 15 -44 16 -83 8z"/>
<path d="M7950 933 c0 -3 19 -33 41 -66 31 -45 42 -72 45 -106 3 -59 2 -57 13
-46 5 6 11 28 12 50 2 28 16 59 46 104 24 35 42 66 39 69 -7 7 -74 -67 -82
-90 -8 -28 -18 -22 -52 31 -28 42 -62 73 -62 54z"/>
<path d="M4970 851 c0 -68 3 -84 23 -106 28 -33 69 -40 112 -19 38 18 43 33
48 142 2 50 -1 62 -13 62 -12 0 -15 -14 -14 -76 1 -98 -14 -119 -83 -115 -34
2 -50 45 -48 124 1 50 -1 67 -12 67 -10 0 -13 -20 -13 -79z"/>
<path d="M6942 823 c4 -130 23 -145 23 -18 -1 64 2 82 10 73 7 -7 40 -48 74
-91 35 -43 66 -75 69 -72 4 3 7 53 7 111 1 79 -2 104 -12 104 -10 0 -13 -22
-13 -82 l0 -83 -28 32 c-41 48 -55 65 -80 101 -13 17 -30 32 -38 32 -12 0 -14
-18 -12 -107z"/>
</g>
</svg>
